<?xml version="1.0" encoding="utf-8"?>
<!-- Generator: Adobe Illustrator 23.0.3, SVG Export Plug-In . SVG Version: 6.00 Build 0)  -->
<svg version="1.1" id="레이어_1" xmlns="http://www.w3.org/2000/svg" xmlns:xlink="http://www.w3.org/1999/xlink" x="0px"
	 y="0px" viewBox="0 0 252.6 115.5" style="enable-background:new 0 0 252.6 115.5;" xml:space="preserve">
<style type="text/css">
	.st0{fill:#013E6E;}
</style>
<path class="st0" d="M0,41.1v36.3h25.6v-5.2H6.2v-26h17.4v-5.2H0z M29.3,40v15.9h-12v5.5h12v19.2h6.2V40H29.3z"/>
<path class="st0" d="M76.5,40h6.2v14.5h5.5V60h-5.5v20.5h-6.2V40z M47,72.5C53.3,71,58.7,66.7,61.8,60H47.2v-5.1h16.4
	c0.6-2.6,1-5.5,1-8.5H47.3v-5.2h23.6v4.2c0,17-10,30.4-23.9,32.6V72.5z"/>
<path class="st0" d="M116.8,53c3.1,0,5.1-1.7,5.1-4c0-2.4-2-4-5.1-4h-13.7c-3.1,0-5.1,1.7-5.1,4c0,2.4,2,4,5.1,4H116.8z M92.7,68.6
	h6.2v6.7h28.8v5.1h-35V68.6z M102.9,57.9c-7,0-11.1-3.6-11.1-9s4.2-9,11.1-9H117c7,0,11.1,3.6,11.1,9s-4.2,9-11.1,9H102.9z
	 M89.7,60.7h40.4v4.9h-16.1V72h-6.5v-6.5H89.7V60.7z"/>
<path class="st0" d="M164.2,40h6.2v40.6h-6.2V40z M134.5,41.1h24.3v5.2h-18.1v10.2h17.9v5.1h-17.9v11.1h20.8v5.2h-27V41.1z"/>
<path class="st0" d="M178.1,69.6c0-5,4.6-8.5,9.4-10.9c4.4-2.2,7.2-4.8,7.2-7.1v-1.2c0-2.5-1.6-4.7-5.2-4.7c-3.6,0-5.2,2.2-5.2,4.7
	v1.9h-6.2v-1.9c0-6.1,5-9.7,11.4-9.7c6.4,0,11.4,3.6,11.4,9.7v1.2c0,4.3-3.5,8-9.8,11.5c-4.9,2.7-6.7,4.4-6.7,6.5V72h16.5v5h-22.7
	V69.6z"/>
<polygon class="st0" points="211.2,47.2 205.8,47.2 205.8,41.8 217.4,41.8 217.4,77 211.2,77 "/>
<path class="st0" d="M241.7,66.1V49.5l-10.2,16.6H241.7z M225.3,65.7L240,41.8h7.9v24.4h4.7v5h-4.7V77h-6.2v-5.9h-16.4V65.7z"/>
<path class="st0" d="M116.2,23.8H95.7v-2.6h20.5V23.8z M94.9,15.4h-2.8v9.4H89V4.2h3.1v8.4h2.8V15.4z M87,8.8H73.9V6.2h4.9V4h3.3
	v2.2H87V8.8z M86.4,18c0,3.7-2.4,5.8-5.9,5.8c-3.5,0-5.9-2.1-5.9-5.8v-2.6c0-3.7,2.4-5.8,5.9-5.8c3.6,0,5.9,2.1,5.9,5.8V18z
	 M72.4,19.9h-8.6v4.9h-3.3v-4.9h-8.6v-2.6h20.5V19.9z M49.4,24.7H31.9v-6.9h3.1v4.3h14.4V24.7z M30.1,14.2c2.9-0.5,5.1-2.6,5.1-5.2
	V8h-4.8V5.5h4.8v-2h3.3v2H43V8h-4.6v1c0,2.5,1.8,4.3,4.7,5v2.5c-2.6-0.5-4.9-1.7-6.3-3.3c-1.5,1.8-3.9,3-6.7,3.5V14.2z M27.5,24.8
	h-3V4.2h3V24.8z M22.9,24.4h-3V14.3h-3.2v-2.8h3.2V4.3h3V24.4z M18.4,23.4c-2.1-0.7-4.1-2.3-5-4.4c-1.1,2.1-3,3.9-5.1,4.6v-2.7
	c1.9-0.8,3.5-3.8,3.5-7.7V7.4H8.5V4.8h9.5v2.6h-3.1v5.7c0,4,1.2,6.4,3.5,7.5V23.4z M45.8,9.1V4.2H49v15.1h-3.1v-7.5h-3.8V9.1H45.8z
	 M53.6,8.9h13.9V7.2H53.6V4.7h17.1v6.7H56.8v1.8h14.3v2.6H53.6V8.9z M96.7,14.9c4.2-0.6,7.6-3.5,7.6-7.5V4.2h3.2v3.2
	c0,4,3.5,6.9,7.6,7.5v2.5c-3.6-0.4-7.1-2.2-9.2-4.9c-2.1,2.7-5.6,4.5-9.2,4.9V14.9z M115.5,0h-72H7.3H0.1v7.2v9.4v4.3
	c0,4,3.2,7.2,7.2,7.2h72h36.2h7.2v-7.2v-9.4V7.2C122.8,3.2,119.5,0,115.5,0"/>
<path class="st0" d="M80.5,12.2c-1.8,0-2.8,1.2-2.8,3.1v2.8c0,1.9,1,3.1,2.8,3.1c1.8,0,2.8-1.2,2.8-3.1v-2.8
	C83.2,13.4,82.2,12.2,80.5,12.2"/>
<polygon class="st0" points="5.7,113.7 5.7,100.6 3.2,102.4 1.9,100.6 6,97.7 8,97.7 8,113.7 "/>
<path class="st0" d="M25.9,114c-4,0-5.8-3.6-5.8-8.3c0-4.7,1.8-8.3,5.8-8.3c4,0,5.8,3.6,5.8,8.3C31.7,110.4,29.9,114,25.9,114
	 M25.9,99.5c-2.6,0-3.5,2.8-3.5,6.3c0,3.5,0.9,6.3,3.5,6.3c2.6,0,3.5-2.8,3.5-6.3C29.4,102.2,28.5,99.5,25.9,99.5"/>
<path class="st0" d="M43.7,107.2h-3.9v-10h2.3v8.1h1.6c2.5,0,4.9-0.1,7.3-0.5v1.9C48.8,107.1,46.2,107.2,43.7,107.2 M41.8,115.2V109
	h2.3v4.2h11.1v2H41.8z M52.4,110.3v-6.5h-5.1v-1.9h5.1v-1.4h-5.1v-1.9h5.1v-1.8h2.3v13.5H52.4z"/>
<path class="st0" d="M73.6,111h18.6v2H73.6V111z M75.2,107.5v-1.9h2.7l-0.1-5.2h2.3l0.1,5.2h5.3l0.1-5.2h2.3l-0.1,5.2h2.7v1.9H75.2z
	 M75.5,97.7h14.6v1.9H75.5V97.7z"/>
<path class="st0" d="M99.5,103.3h7.4v-3.7h-7.4v-1.9h9.7v7.5h-7.4v4.3h2.5c2.4,0,4.7-0.1,7-0.6v1.9c-2.2,0.4-4.7,0.6-7,0.6h-4.8
	V103.3z M112.4,96.8h2.3v18.8h-2.3V96.8z"/>
<path class="st0" d="M124.1,97.9h9.7v13.3h-9.7V97.9z M131.4,99.8h-5.1v9.4h5.1V99.8z M136.9,96.8h2.3v18.8h-2.3V96.8z"/>
<path class="st0" d="M161.5,107.2v-4.6h-3.1c-0.5,2.2-2.6,3.7-5.2,3.7c-3,0-5.3-1.9-5.3-4.7c0-2.8,2.3-4.7,5.3-4.7
	c2.6,0,4.7,1.4,5.2,3.6h3.1v-3.8h2.3v10.4H161.5z M153.2,98.9c-1.6,0-3,1-3,2.7c0,1.7,1.4,2.7,3,2.7c1.6,0,3-1,3-2.7
	C156.2,99.9,154.9,98.9,153.2,98.9 M150.6,107.9h13.2v7.4h-13.2V107.9z M161.5,109.9h-8.6v3.5h8.6V109.9z"/>
<path class="st0" d="M188.7,109.6c-2.8,0-5.4-2.3-5.4-6.1s2.6-6.1,5.4-6.1c2.8,0,5.4,2.3,5.4,6.1S191.5,109.6,188.7,109.6
	 M188.7,99.3c-1.8,0-3.1,1.6-3.1,4.2c0,2.6,1.3,4.2,3.1,4.2c1.8,0,3.1-1.6,3.1-4.2C191.8,100.9,190.5,99.3,188.7,99.3 M196.3,115.5
	V96.8h2.3v5.9h2.8v2h-2.8v10.9H196.3z"/>
<path class="st0" d="M213.2,111.2h-6v-1.9h2.6l-0.1-8.8h2.3l0.1,8.8h1.2c0.6,0,1.3,0,2,0l0.1-8.8h2.3l-0.1,8.7
	c0.9-0.1,1.7-0.1,2.5-0.2v1.9C218,111.1,215.3,111.2,213.2,111.2 M207.7,97.9h11.9v1.9h-11.9V97.9z M220.9,115.5V96.8h2.3v6.5h2.8v2
	h-2.8v10.2H220.9z"/>
<path class="st0" d="M231.8,111.1h18.6v2h-18.6V111.1z M234.2,108.3V97.6H248v1.9h-11.4v2.4h11.3v1.9h-11.3v2.5h11.7v1.9H234.2z"/>
</svg>
